Coordinates
version=1
nRows=14
nColumns=40
inDegrees=yes

Units are S.I. units (second, meters, Newtons, ...)
Angles are in degrees.

endheader
time	pelvis_tilt	pelvis_list	pelvis_rotation	pelvis_tx	pelvis_ty	pelvis_tz	hip_flexion_r	hip_adduction_r	hip_rotation_r	knee_angle_r	knee_angle_r_beta	ankle_angle_r	subtalar_angle_r	mtp_angle_r	hip_flexion_l	hip_adduction_l	hip_rotation_l	knee_angle_l	knee_angle_l_beta	ankle_angle_l	subtalar_angle_l	mtp_angle_l	lumbar_extension	lumbar_bending	lumbar_rotation	arm_flex_r	arm_add_r	arm_rot_r	elbow_flex_r	pro_sup_r	wrist_flex_r	wrist_dev_r	arm_flex_l	arm_add_l	arm_rot_l	elbow_flex_l	pro_sup_l	wrist_flex_l	wrist_dev_l
      1.42000000	    -18.60916571	     -1.42559871	      2.74236959	      0.98354324	      1.03271628	     -0.35440176	     54.57986831	     -3.03960674	      0.98519319	     80.80365246	     80.80365246	      3.45107733	      0.00000000	      0.00000000	      1.57614683	      3.86302697	     -1.35143389	     19.05311605	     19.05311605	    -16.80134126	      0.00000000	      0.00000000	      8.17635394	      2.89600489	    -12.93096591	    -45.22192755	    -23.99562732	    -10.39469351	    101.36998963	     60.80224170	      0.00000000	      0.00000000	    -26.40122249	    -12.05525683	     -9.02314504	    129.09501681	     55.77742888	      0.00000000	      0.00000000
      1.43000000	    -18.95426698	     -0.72672302	      2.55655921	      0.98450013	      1.03833127	     -0.35523073	     55.24570179	     -3.78563887	      0.63697242	     75.23575077	     75.23575077	      3.62138001	      0.00000000	      0.00000000	      0.07471334	      4.37446263	     -1.69001356	     18.79345310	     18.79345310	    -18.36867335	      0.00000000	      0.00000000	      8.70340110	      2.31085771	    -13.28056667	    -46.68097877	    -23.95129533	    -10.69528484	    102.19257495	     60.74300425	      0.00000000	      0.00000000	    -27.01029978	    -12.60211230	     -9.11798936	    130.53331708	     55.81282526	      0.00000000	      0.00000000
      1.44000000	    -19.24462396	     -1.98533767	      2.09367885	      0.98729508	      1.04452864	     -0.35505580	     54.87593345	     -2.49145160	     -1.09804353	     68.44083959	     68.44083959	      3.72998972	      0.00000000	      0.00000000	     -2.20987113	      2.72030954	     -1.73881220	     15.93092108	     15.93092108	    -26.52807210	      0.00000000	      0.00000000	      9.62919518	      4.05956719	    -13.55529604	    -48.36672099	    -23.71868974	    -12.06451366	    104.31352001	     60.44754515	      0.00000000	      0.00000000	    -27.56027198	    -12.38711435	     -8.30416259	    133.21621655	     55.92647990	      0.00000000	      0.00000000
      1.45000000	    -19.37915724	     -1.13306679	      1.94206549	      0.98872933	      1.04936586	     -0.35496032	     54.56799928	     -3.00133072	     -1.62757113	     62.13704255	     62.13704255	      3.70706626	      0.00000000	      0.00000000	     -3.61593113	      3.37366409	     -1.80905583	     15.87136267	     15.87136267	    -28.83439256	      0.00000000	      0.00000000	     10.12487316	      3.17047343	    -13.73801381	    -49.41302443	    -23.18130944	    -12.39917366	    105.51192928	     60.33939281	      0.00000000	      0.00000000	    -27.94072294	    -12.80730531	     -8.27166538	    134.64991650	     55.97609572	      0.00000000	      0.00000000
      1.46000000	    -19.47738768	     -0.02103762	      1.19910721	      0.98996081	      1.05200622	     -0.35508093	     54.52909467	     -3.57189272	     -2.61861135	     56.62686863	     56.62686863	      3.57526625	      0.00000000	      0.00000000	     -4.75411902	      4.54182675	     -1.35056072	     16.62412551	     16.62412551	    -30.49899835	      0.00000000	      0.00000000	     10.26754274	      2.35934891	    -13.30753267	    -50.76357492	    -23.49881901	    -12.90962497	    106.35029107	     60.27917075	      0.00000000	      0.00000000	    -29.25126873	    -13.41488179	     -8.35205988	    135.81699767	     56.00994245	      0.00000000	      0.00000000
      1.47000000	    -19.53040325	      0.86246568	      0.81793225	      0.99152346	      1.05463007	     -0.35448991	     53.60553340	     -3.71177521	     -3.37996841	     49.95756255	     49.95756255	      3.02012657	      0.00000000	      0.00000000	     -5.65067934	      5.43471734	     -0.26811055	     17.89888386	     17.89888386	    -32.53859421	      0.00000000	      0.00000000	     10.77290767	      1.40939408	    -13.14614395	    -51.43745415	    -23.03170186	    -13.23538200	    107.84932668	     60.23353913	      0.00000000	      0.00000000	    -29.96923139	    -13.62523585	     -8.24114281	    137.38309469	     56.05875718	      0.00000000	      0.00000000
      1.48000000	    -19.44494211	      1.44970925	      0.23944024	      0.99199464	      1.05599578	     -0.35381417	     52.83163399	     -3.34889731	     -3.98630426	     44.21727849	     44.21727849	      2.24130248	      0.00000000	      0.00000000	     -6.35628503	      6.21954689	      1.61831105	     19.82311971	     19.82311971	    -33.68277062	      0.00000000	      0.00000000	     10.61005050	      1.13110645	    -12.93739504	    -51.92054555	    -22.91266236	    -13.60615503	    108.97005508	     60.17121897	      0.00000000	      0.00000000	    -30.60315027	    -14.01868020	     -8.04728545	    138.23653462	     56.07182941	      0.00000000	      0.00000000
      1.49000000	    -18.98002467	      0.52058512	      1.14936028	      0.99044895	      1.05912064	     -0.35429914	     49.55828765	     -1.91987728	     -3.17772053	     34.73697319	     34.73697319	     -0.12099565	      0.00000000	      0.00000000	     -6.28543188	      5.42758945	      5.95880764	     24.13023373	     24.13023373	    -33.31835787	      0.00000000	      0.00000000	      9.92095891	      2.11692201	    -13.78518810	    -51.57074806	    -22.00658365	    -14.09611780	    110.33278782	     59.98798415	      0.00000000	      0.00000000	    -29.62019650	    -14.37724577	     -7.08495565	    138.44479701	     56.01387560	      0.00000000	      0.00000000
      1.50000000	    -18.36065104	     -0.05770439	      1.04618113	      0.99030058	      1.05987250	     -0.35412902	     47.20385820	     -0.59990288	     -3.30093426	     28.26924892	     28.26924892	     -1.32223762	      0.00000000	      0.00000000	     -6.31118977	      5.17096188	      7.86468886	     28.99107109	     28.99107109	    -31.21257700	      0.00000000	      0.00000000	      9.05085162	      3.02924437	    -13.60860104	    -51.54352698	    -21.69478615	    -14.75367166	    110.73710154	     59.74215964	      0.00000000	      0.00000000	    -29.53525818	    -14.70874268	     -5.91534688	    137.56313292	     55.81678330	      0.00000000	      0.00000000
      1.51000000	    -17.83448497	      0.00525831	      0.90583178	      0.98985201	      1.05912008	     -0.35396225	     45.22706810	      0.23031975	     -2.15001544	     23.19015015	     23.19015015	     -1.35864387	      0.00000000	      0.00000000	     -5.83048892	      5.49899881	      8.56460112	     34.41680722	     34.41680722	    -30.15134693	      0.00000000	      0.00000000	      8.25829508	      3.22931159	    -13.22205864	    -51.28750465	    -21.40554645	    -14.97959769	    111.55210708	     59.63640327	      0.00000000	      0.00000000	    -29.46871844	    -15.06467317	     -5.17665572	    136.83178845	     55.62466964	      0.00000000	      0.00000000
      1.52000000	    -17.39370226	     -0.48163576	      0.53831885	      0.98937909	      1.05717264	     -0.35347769	     43.29165199	      1.51676007	     -1.18719504	     18.69627447	     18.69627447	     -1.88981213	      0.00000000	      0.00000000	     -4.90881901	      5.06118920	      8.06586633	     40.40870459	     40.40870459	    -28.56208355	      0.00000000	      0.00000000	      7.55996483	      4.05335881	    -12.62251116	    -50.90923033	    -21.36752317	    -15.29781108	    112.05065980	     59.53142934	      0.00000000	      0.00000000	    -29.54200018	    -15.22121614	     -4.29915466	    135.75478765	     55.36209129	      0.00000000	      0.00000000
      1.53000000	    -17.04014379	     -1.19341176	      0.24140195	      0.98896687	      1.05401778	     -0.35300220	     41.54980040	      2.81132111	     -0.89950453	     15.27866738	     15.27866738	     -2.40866006	      0.00000000	      0.00000000	     -3.58083257	      4.10114497	      6.94809058	     46.85814801	     46.85814801	    -27.07185254	      0.00000000	      0.00000000	      6.99379163	      5.11600051	    -11.98236046	    -50.48759456	    -21.48881011	    -15.59907084	    112.56436615	     59.44553174	      0.00000000	      0.00000000	    -29.58721426	    -15.27542434	     -3.39907088	    134.43821484	     55.07557121	      0.00000000	      0.00000000
      1.54000000	    -16.31182252	     -1.09117782	      0.09498579	      0.98816505	      1.05052263	     -0.35228261	     40.13083329	      3.17043987	     -0.91596891	     14.30152261	     14.30152261	     -2.01254845	      0.00000000	      0.00000000	     -2.35261634	      3.84262563	      5.80332500	     53.28209921	     53.28209921	    -26.98421542	      0.00000000	      0.00000000	      5.99384509	      5.12475821	    -11.50674666	    -49.34830382	    -21.37131172	    -15.30580872	    112.73069621	     59.42928923	      0.00000000	      0.00000000	    -29.37169624	    -15.64894369	     -2.98378493	    132.71764136	     54.94287803	      0.00000000	      0.00000000
      1.55000000	    -15.72772676	     -0.86938933	     -0.18331941	      0.98679339	      1.04570995	     -0.35153536	     38.93128308	      3.32028289	     -1.57753394	     13.86829753	     13.86829753	     -1.71874729	      0.00000000	      0.00000000	     -0.94657124	      3.59784440	      4.84074295	     59.37950438	     59.37950438	    -26.46262499	      0.00000000	      0.00000000	      4.91359352	      4.99104677	    -10.41898859	    -48.19609581	    -21.68715999	    -15.13864218	    112.71700582	     59.41871341	      0.00000000	      0.00000000	    -29.75454948	    -15.79756173	     -2.53952575	    131.01084125	     54.87387861	      0.00000000	      0.00000000
